<svg width="90" height="90" viewBox="0 0 90 90" fill="none" xmlns="http://www.w3.org/2000/svg">
<path fill-rule="evenodd" clip-rule="evenodd" d="M5.20094 33.6295C-1.04745 39.8779 -1.04745 50.0085 5.20094 56.2569L33.4581 84.5141C39.7065 90.7625 49.8371 90.7625 56.0855 84.5141L84.3464 56.2533C90.5948 50.0049 90.5948 39.8742 84.3464 33.6258L56.0892 5.36866C49.8408 -0.879725 39.7102 -0.879723 33.4618 5.36867L5.20094 33.6295ZM22.7183 36.5491C21.6 39.5108 21.0408 42.6795 21.0408 46.0553H25.39C25.39 43.2801 25.8353 40.6809 26.7259 38.2578C27.6164 35.8346 28.8798 33.7014 30.5159 31.8582C32.1521 30.0149 34.0989 28.5755 36.3563 27.54C38.6345 26.5045 41.1612 25.9867 43.9364 25.9867C46.7117 25.9867 49.3108 26.5045 51.734 27.54C54.1571 28.5962 56.28 30.046 58.1025 31.8892C59.9458 33.7325 61.3852 35.8657 62.4207 38.2888C63.4562 40.712 63.974 43.3008 63.974 46.0553C63.974 48.8099 63.4562 51.3883 62.4207 53.7908C61.3852 56.2139 59.9458 58.3471 58.1025 60.1904C56.28 62.0336 54.1571 63.473 51.734 64.5085C49.3108 65.5648 46.7117 66.0929 43.9364 66.0929C42.4453 66.0929 40.923 65.9065 39.3697 65.5337C37.8371 65.1609 36.5427 64.581 35.4865 63.794C34.4509 63.007 33.9332 61.9922 33.9332 60.7496C33.9332 59.7761 34.2645 58.8959 34.9273 58.1089C35.59 57.3219 36.4184 56.9284 37.4126 56.9284H55.1202L55.6483 53.418H52.1068C53.3701 52.5895 54.3746 51.4401 55.1202 49.9696C55.8865 48.4992 56.2696 46.8734 56.2696 45.0923C56.2696 42.8348 55.7104 40.7638 54.5921 38.8791C53.4944 37.0151 52.0136 35.524 50.1496 34.4056C48.2857 33.3079 46.2146 32.7591 43.9364 32.7591C41.6583 32.7591 39.5768 33.3079 37.6922 34.4056C35.8282 35.524 34.337 37.0151 33.2187 38.8791C32.121 40.7638 31.5722 42.8348 31.5722 45.0923C31.5722 46.9148 31.9553 48.5199 32.7216 49.9075C33.5086 51.2951 34.5545 52.4135 35.8593 53.2626C34.6788 53.3662 33.6122 53.8011 32.6595 54.5674C31.7068 55.3337 30.9508 56.2864 30.3916 57.4255C29.8532 58.5853 29.5839 59.7658 29.5839 60.967C29.5839 62.4789 29.9981 63.8147 30.8266 64.9745C31.6757 66.155 32.7941 67.1491 34.1817 67.9569C35.59 68.7646 37.1433 69.3755 38.8416 69.7898C40.5399 70.2247 42.2381 70.4421 43.9364 70.4421C47.2916 70.4421 50.4396 69.8105 53.3805 68.5471C56.3214 67.3045 58.9102 65.5648 61.147 63.328C63.3837 61.112 65.1338 58.5232 66.3971 55.5615C67.6812 52.6206 68.3232 49.4519 68.3232 46.0553C68.3232 42.6795 67.6916 39.5108 66.4282 36.5491C65.1649 33.6082 63.4148 31.0194 61.1781 28.7826C58.9413 26.5459 56.3421 24.7958 53.3805 23.5325C50.4396 22.2691 47.2916 21.6375 43.9364 21.6374C40.5813 21.6374 37.5058 22.2691 34.7098 23.5325C31.9139 24.7958 29.4907 26.5459 27.4404 28.7826C25.4107 31.0194 23.8367 33.6082 22.7183 36.5491ZM36.4185 49.5969C35.5279 48.4163 35.0826 47.008 35.0826 45.3719C35.0826 43.7772 35.4761 42.3067 36.2631 40.9605C37.0501 39.6143 38.1064 38.5374 39.4319 37.7296C40.778 36.9219 42.2796 36.5181 43.9364 36.5181C45.5726 36.5181 47.0534 36.9116 48.3789 37.6986C49.7251 38.5063 50.7917 39.5729 51.5787 40.8984C52.3657 42.2446 52.7592 43.7357 52.7592 45.3719C52.7592 47.1116 52.3553 48.5717 51.5476 49.7522C50.7606 50.9327 49.7251 51.8129 48.441 52.3928C47.1569 52.9934 45.7797 53.2937 44.3092 53.2937C42.7766 53.2937 41.2958 52.9727 39.8668 52.3307C38.4585 51.6886 37.309 50.7774 36.4185 49.5969Z" fill="#F5F3EF"/>
</svg>
