<svg width="176" height="176" viewBox="0 0 176 176" fill="none" xmlns="http://www.w3.org/2000/svg">
<path fill-rule="evenodd" clip-rule="evenodd" d="M9.29767 65.3676C-3.09923 77.7645 -3.09922 97.8639 9.29768 110.261L65.3603 166.323C77.7572 178.72 97.8566 178.72 110.253 166.323L166.323 110.253C178.72 97.8566 178.72 77.7572 166.323 65.3603L110.261 9.29767C97.8639 -3.09923 77.7645 -3.09922 65.3676 9.29768L9.29767 65.3676ZM44.0526 71.1613C41.8337 77.0372 40.7243 83.324 40.7243 90.0217H49.3532C49.3532 84.5156 50.2366 79.3588 52.0035 74.5512C53.7704 69.7437 56.2769 65.5114 59.5231 61.8543C62.7692 58.1973 66.6317 55.3415 71.1105 53.287C75.6304 51.2325 80.6435 50.2052 86.1496 50.2052C91.6557 50.2053 96.8125 51.2325 101.62 53.287C106.428 55.3826 110.639 58.2589 114.255 61.916C117.912 65.573 120.768 69.8053 122.823 74.6129C124.877 79.4204 125.904 84.5567 125.904 90.0217C125.904 95.4867 124.877 100.602 122.823 105.369C120.768 110.177 117.912 114.409 114.255 118.066C110.639 121.723 106.428 124.579 101.62 126.633C96.8125 128.729 91.6557 129.777 86.1496 129.777C83.1911 129.777 80.1709 129.407 77.0891 128.667C74.0485 127.928 71.4803 126.777 69.3847 125.216C67.3302 123.654 66.3029 121.641 66.3029 119.175C66.3029 117.244 66.9604 115.498 68.2753 113.936C69.5902 112.375 71.2338 111.594 73.2061 111.594H108.338L109.386 104.629H102.36C104.866 102.986 106.859 100.705 108.338 97.7878C109.859 94.8704 110.619 91.6448 110.619 88.111C110.619 83.6322 109.509 79.5232 107.291 75.784C105.113 72.0858 102.175 69.1273 98.4766 66.9085C94.7785 64.7307 90.6695 63.6418 86.1496 63.6418C81.6296 63.6418 77.5001 64.7307 73.7608 66.9084C70.0627 69.1273 67.1042 72.0858 64.8853 75.784C62.7076 79.5232 61.6187 83.6322 61.6187 88.111C61.6187 91.727 62.3788 94.9115 63.8992 97.6645C65.4606 100.418 67.5357 102.636 70.1243 104.321C67.7822 104.527 65.6661 105.39 63.7759 106.91C61.8857 108.43 60.386 110.32 59.2765 112.58C58.2082 114.881 57.674 117.224 57.674 119.607C57.674 122.606 58.4958 125.257 60.1394 127.558C61.8241 129.9 64.043 131.872 66.796 133.475C69.5902 135.077 72.6719 136.289 76.0413 137.111C79.4108 137.974 82.7802 138.406 86.1496 138.406C92.8062 138.406 99.0519 137.152 104.887 134.646C110.722 132.18 115.858 128.729 120.296 124.291C124.733 119.894 128.205 114.758 130.712 108.882C133.26 103.047 134.533 96.7606 134.533 90.0217C134.533 83.324 133.28 77.0372 130.774 71.1613C128.267 65.3265 124.795 60.1902 120.357 55.7524C115.919 51.3147 110.763 47.8426 104.887 45.3361C99.0519 42.8295 92.8062 41.5763 86.1496 41.5763C79.4929 41.5763 73.391 42.8295 67.8438 45.3361C62.2967 47.8426 57.4891 51.3147 53.4212 55.7524C49.3943 60.1902 46.2714 65.3265 44.0526 71.1613ZM71.2338 97.0482C69.4669 94.706 68.5835 91.9119 68.5835 88.6658C68.5835 85.5018 69.3642 82.5844 70.9256 79.9135C72.487 77.2427 74.5826 75.106 77.2124 73.5034C79.8833 71.9009 82.8623 71.0997 86.1496 71.0997C89.3957 71.0997 92.3336 71.8804 94.9634 73.4418C97.6343 75.0443 99.7504 77.1605 101.312 79.7903C102.873 82.4611 103.654 85.4196 103.654 88.6658C103.654 92.1173 102.853 95.0142 101.25 97.3564C99.6888 99.6985 97.6343 101.445 95.0867 102.595C92.5391 103.787 89.8066 104.383 86.8892 104.383C83.8485 104.383 80.9105 103.746 78.0753 102.472C75.2812 101.198 73.0007 99.3903 71.2338 97.0482Z" fill="#17191A"/>
</svg>
