<svg width="408" height="89" viewBox="0 0 408 89" fill="none" xmlns="http://www.w3.org/2000/svg">
<path fill-rule="evenodd" clip-rule="evenodd" d="M5.26393 32.995C-0.98446 39.2434 -0.984461 49.374 5.26393 55.6224L33.5211 83.8796C39.7695 90.128 49.9001 90.128 56.1485 83.8796L84.4094 55.6187C90.6577 49.3703 90.6577 39.2397 84.4094 32.9913L56.1522 4.73414C49.9038 -1.51425 39.7732 -1.51424 33.5248 4.73414L5.26393 32.995ZM22.7813 35.9146C21.663 38.8762 21.1038 42.045 21.1038 45.4208H25.453C25.453 42.6456 25.8983 40.0464 26.7888 37.6232C27.6794 35.2001 28.9428 33.0669 30.5789 31.2236C32.215 29.3804 34.1618 27.941 36.4193 26.9055C38.6975 25.8699 41.2242 25.3522 43.9994 25.3522C46.7746 25.3522 49.3738 25.8699 51.797 26.9055C54.2201 27.9617 56.343 29.4115 58.1655 31.2547C60.0088 33.098 61.4482 35.2312 62.4837 37.6543C63.5192 40.0775 64.037 42.6663 64.037 45.4208C64.037 48.1753 63.5192 50.7538 62.4837 53.1562C61.4482 55.5794 60.0088 57.7126 58.1655 59.5558C56.343 61.3991 54.2201 62.8385 51.797 63.874C49.3738 64.9303 46.7746 65.4584 43.9994 65.4584C42.5082 65.4584 40.986 65.272 39.4327 64.8992C37.9001 64.5264 36.6057 63.9465 35.5495 63.1595C34.5139 62.3725 33.9962 61.3577 33.9962 60.115C33.9962 59.1416 34.3275 58.2614 34.9903 57.4744C35.653 56.6874 36.4814 56.2939 37.4756 56.2939H55.1832L55.7113 52.7835H52.1698C53.4331 51.955 54.4376 50.8056 55.1832 49.3351C55.9495 47.8647 56.3326 46.2389 56.3326 44.4578C56.3326 42.2003 55.7734 40.1292 54.6551 38.2446C53.5574 36.3806 52.0766 34.8894 50.2126 33.7711C48.3487 32.6734 46.2776 32.1246 43.9994 32.1246C41.7212 32.1246 39.6398 32.6734 37.7551 33.7711C35.8912 34.8894 34.4 36.3806 33.2816 38.2446C32.184 40.1292 31.6351 42.2003 31.6351 44.4578C31.6351 46.2803 32.0183 47.8854 32.7846 49.273C33.5716 50.6606 34.6175 51.779 35.9223 52.6281C34.7417 52.7317 33.6751 53.1666 32.7225 53.9329C31.7698 54.6992 31.0138 55.6519 30.4546 56.791C29.9162 57.9508 29.6469 59.1313 29.6469 60.3325C29.6469 61.8444 30.0611 63.1802 30.8896 64.34C31.7387 65.5205 32.8571 66.5146 34.2447 67.3223C35.653 68.1301 37.2063 68.741 38.9046 69.1552C40.6029 69.5902 42.3011 69.8076 43.9994 69.8076C47.3545 69.8076 50.5026 69.1759 53.4435 67.9126C56.3844 66.67 58.9732 64.9303 61.21 62.6935C63.4467 60.4775 65.1968 57.8886 66.4601 54.927C67.7442 51.9861 68.3862 48.8174 68.3862 45.4208C68.3862 42.045 67.7546 38.8762 66.4912 35.9146C65.2279 32.9737 63.4778 30.3849 61.241 28.1481C59.0043 25.9114 56.4051 24.1613 53.4435 22.898C50.5026 21.6346 47.3545 21.0029 43.9994 21.0029C40.6443 21.0029 37.5688 21.6346 34.7728 22.898C31.9769 24.1613 29.5537 25.9114 27.5034 28.1481C25.4737 30.3849 23.8997 32.9737 22.7813 35.9146ZM36.4814 48.9623C35.5909 47.7818 35.1456 46.3735 35.1456 44.7374C35.1456 43.1426 35.5391 41.6722 36.3261 40.326C37.1131 38.9798 38.1694 37.9028 39.4948 37.0951C40.841 36.2874 42.3426 35.8835 43.9994 35.8835C45.6356 35.8835 47.1164 36.277 48.4419 37.0641C49.788 37.8718 50.8546 38.9384 51.6417 40.2639C52.4287 41.61 52.8222 43.1012 52.8222 44.7374C52.8222 46.4771 52.4183 47.9372 51.6106 49.1177C50.8236 50.2982 49.788 51.1784 48.504 51.7583C47.2199 52.3589 45.8427 52.6592 44.3722 52.6592C42.8396 52.6592 41.3588 52.3382 39.9298 51.6961C38.5214 51.0541 37.372 50.1428 36.4814 48.9623Z" fill="#161819"/>
<path d="M122.926 69.8076V61.823L151.87 30.6331L151.038 36.372H123.175V27.8052H158.357V35.7066L129.496 67.0629L130.078 61.1576H158.357V69.8076H122.926ZM169.731 62.4884V49.7629L191.024 27.8052H202.834V28.4706L169.731 62.4884ZM164.075 69.8076V9.92297L173.391 8.75855L173.64 9.42393V69.8076H164.075ZM192.354 69.8076L177.882 48.6816L184.536 42.6932L203 69.1422V69.8076H192.354ZM224.182 71.0552C219.913 71.0552 216.142 70.1126 212.871 68.2273C209.655 66.3421 207.132 63.736 205.302 60.4091C203.472 57.0821 202.557 53.2007 202.557 48.7648C202.557 44.3844 203.444 40.5307 205.219 37.2038C207.049 33.8214 209.544 31.2153 212.704 29.3855C215.92 27.5002 219.608 26.5576 223.766 26.5576C227.925 26.5576 231.529 27.5279 234.579 29.4687C237.684 31.3539 240.096 34.0154 241.815 37.4533C243.589 40.8911 244.477 44.9111 244.477 49.5134V51.0937L243.229 52.3413H207.049V44.3566H240.152L235.078 46.2696C235.023 43.9408 234.468 41.9446 233.415 40.2812C232.416 38.5622 231.086 37.2592 229.422 36.372C227.814 35.4294 225.984 34.9581 223.933 34.9581C221.715 34.9581 219.691 35.4848 217.861 36.5384C216.031 37.5364 214.617 38.9504 213.619 40.7802C212.621 42.5546 212.122 44.6339 212.122 47.0182V50.3451C212.122 52.6185 212.649 54.6978 213.702 56.5831C214.811 58.4129 216.281 59.8823 218.111 60.9913C219.94 62.1002 221.964 62.6547 224.182 62.6547C226.289 62.6547 228.202 62.1002 229.921 60.9913C231.696 59.8268 233.082 58.2743 234.08 56.3336H235.078L242.813 59.6605C241.15 63.2647 238.682 66.0648 235.411 68.061C232.195 70.0571 228.452 71.0552 224.182 71.0552ZM251.06 69.8076V27.8052H260.042V38.0355L258.462 36.4552C259.405 34.3481 260.624 32.5738 262.122 31.1321C263.619 29.6904 265.365 28.5815 267.361 27.8052C269.358 26.9735 271.603 26.5576 274.099 26.5576C277.592 26.5576 280.697 27.5279 283.414 29.4687C286.131 31.4094 287.961 34.265 288.903 38.0355L285.826 37.8691C286.769 35.4848 288.099 33.461 289.818 31.7975C291.537 30.134 293.533 28.8587 295.807 27.9715C298.136 27.0289 300.575 26.5576 303.126 26.5576C305.954 26.5576 308.532 27.223 310.861 28.5537C313.245 29.8291 315.131 31.7421 316.517 34.2927C317.958 36.7879 318.679 39.9207 318.679 43.6913V69.8076H309.114V46.0201C309.114 43.5249 308.754 41.501 308.033 39.9485C307.312 38.3405 306.314 37.176 305.039 36.4552C303.764 35.6789 302.294 35.2908 300.631 35.2908C299.078 35.2908 297.442 35.7066 295.724 36.5384C294.06 37.3701 292.618 38.7563 291.399 40.697C290.234 42.5823 289.652 45.2161 289.652 48.5985V69.8076H280.087V46.0201C280.087 43.5249 279.727 41.501 279.006 39.9485C278.285 38.3405 277.287 37.176 276.011 36.4552C274.736 35.6789 273.267 35.2908 271.603 35.2908C270.051 35.2908 268.415 35.7066 266.696 36.5384C265.033 37.3701 263.591 38.7563 262.371 40.697C261.207 42.6377 260.624 45.2715 260.624 48.5985V69.8076H251.06ZM340.102 71.0552C337.219 71.0552 334.641 70.5007 332.367 69.3918C330.149 68.2828 328.403 66.7302 327.127 64.7341C325.852 62.7379 325.214 60.4645 325.214 57.9139C325.214 53.977 326.573 50.8441 329.29 48.5153C332.007 46.131 335.916 44.7448 341.017 44.3566L357.319 43.0259V50.9273L342.431 52.1749C339.77 52.3967 337.857 52.9512 336.692 53.8384C335.528 54.7256 334.945 55.9177 334.945 57.4148C334.945 58.9119 335.611 60.1318 336.942 61.0744C338.272 62.0171 339.964 62.4884 342.015 62.4884C344.178 62.4884 346.118 61.9616 347.837 60.9081C349.612 59.7991 351.026 58.3852 352.079 56.6663C353.133 54.9474 353.659 53.0898 353.659 51.0937V44.1903C353.659 41.5288 352.772 39.3385 350.998 37.6196C349.224 35.8453 346.895 34.9581 344.011 34.9581C341.572 34.9581 339.548 35.568 337.94 36.7879C336.387 37.9523 335.389 39.4217 334.945 41.1961H334.031L325.88 39.1999C326.878 35.4294 328.957 32.3797 332.118 30.0509C335.334 27.722 339.326 26.5576 344.095 26.5576C350.028 26.5576 354.658 28.2765 357.984 31.7143C361.311 35.0967 362.975 39.893 362.975 46.1033V69.8076H354.491V57.5812L357.901 58.0802C357.236 60.4645 356.044 62.6547 354.325 64.6509C352.606 66.5916 350.527 68.1442 348.087 69.3086C345.703 70.473 343.041 71.0552 340.102 71.0552ZM371.436 69.8076V27.8052H381.001V69.8076H371.436ZM376.26 21.484C374.597 21.484 373.183 20.9018 372.019 19.7374C370.854 18.573 370.272 17.1313 370.272 15.4124C370.272 13.8044 370.854 12.4182 372.019 11.2537C373.183 10.0339 374.625 9.42393 376.344 9.42393C377.952 9.42393 379.338 10.0339 380.502 11.2537C381.722 12.4182 382.332 13.8321 382.332 15.4956C382.332 17.159 381.722 18.573 380.502 19.7374C379.338 20.9018 377.924 21.484 376.26 21.484ZM391.145 69.8076V9.92297L400.46 8.75855L400.709 9.42393V69.8076H391.145Z" fill="#161819"/>
</svg>
